<?xml version="1.0" encoding="UTF-8"?>
<!DOCTYPE svg PUBLIC "-//W3C//DTD SVG 1.1//EN" "http://www.w3.org/Graphics/SVG/1.1/DTD/svg11.dtd">
<!-- Creator: CorelDRAW -->
<svg xmlns="http://www.w3.org/2000/svg" xml:space="preserve" width="32mm" height="25mm" style="shape-rendering:geometricPrecision; text-rendering:geometricPrecision; image-rendering:optimizeQuality; fill-rule:evenodd; clip-rule:evenodd"
viewBox="0 0 32 25"
 xmlns:xlink="http://www.w3.org/1999/xlink">
 <defs>
  <style type="text/css">
   <![CDATA[
    .fil1 {fill:#3F51B5}
    .fil0 {fill:#FDD835}
   ]]>
  </style>
 </defs>
 <g id="Layer_x0020_1">
  <metadata id="CorelCorpID_0Corel-Layer"/>
  <g id="_720112240">
   <path id="_728919072" class="fil0" d="M16.4 0.9088c6.566,0 11.8888,5.2892 11.8888,11.8139 0,6.5247 -5.3228,11.8139 -11.8888,11.8139 -6.566,0 -11.8888,-5.2892 -11.8888,-11.8139 0,-6.5247 5.3228,-11.8139 11.8888,-11.8139z"/>
   <path id="_728919408" class="fil1" d="M12.0273 6.1843l3.5352 -0.7031 0.7031 -3.5351 0.7031 3.5352 3.5352 0.7031 -3.5352 0.7031 -0.7032 3.5352 -0.7031 -3.5352 -3.5351 -0.7032zm4.2383 -5.9298c3.3814,0 6.4429,1.3707 8.6588,3.5867 2.216,2.2159 3.5867,5.2775 3.5867,8.6589 0,0.1083 -0.0015,0.2162 -0.0043,0.3239l3.2131 0 0 0.7236 -3.2532 0c-0.0865,1.0207 -0.2983,2.0058 -0.6197,2.9397l3.8729 0 0 0.7236 -4.148 0c-0.444,1.0643 -1.0338,2.0524 -1.7445,2.9396l5.8925 0 0 0.7236 -6.52 0c-0.0903,0.0963 -0.1821,0.1913 -0.2755,0.2847 -2.2159,2.216 -5.2774,3.5867 -8.6588,3.5867 -3.3814,0 -6.4429,-1.3707 -8.6588,-3.5866 -0.0934,-0.0934 -0.1851,-0.1884 -0.2755,-0.2848l-7.0513 0 0 -0.7236 6.4238 0c-0.7106,-0.8871 -1.3005,-1.8753 -1.7444,-2.9396l-4.6794 0 0 -0.7236 4.4042 0c-0.3215,-0.934 -0.5331,-1.919 -0.6196,-2.9397l-3.7846 0 0 -0.7236 3.7444 0c-0.0028,-0.1076 -0.0042,-0.2156 -0.0042,-0.3239 0,-3.3815 1.3707,-6.443 3.5866,-8.6589 2.2159,-2.216 5.2774,-3.5867 8.6588,-3.5867zm-10.8131 16.2328l7.9182 0 1.6965 -2.9397 -1.7009 0 -0.207 0 -0.1053 -0.1823 -2.3487 -4.0698 -2.3487 4.0698 -0.1052 0.1823 -0.2071 0 -3.2535 0c0.0924,1.0244 0.3189,2.0103 0.6617,2.9397zm-0.7041 -3.6633l3.0888 0 2.5558 -4.4287 0.3123 -0.5411 0.3123 0.5411 2.5558 4.4287 1.9114 0 0.4418 -0.7655 0.3124 -0.5411 0.3122 0.5411 0.4417 0.7655 10.79 0c0.003,-0.1076 0.0046,-0.2156 0.0046,-0.3239 0,-3.1817 -1.2897,-6.0624 -3.3747,-8.1473 -2.0849,-2.085 -4.9655,-3.3747 -8.1472,-3.3747 -3.1817,0 -6.0623,1.2897 -8.1472,3.3747 -2.0849,2.0849 -3.3746,4.9655 -3.3746,8.1473 0,0.1083 0.0016,0.2163 0.0046,0.3239zm22.9921 0.7236l-10.33 0 1.6964 2.9397 1.9114 0 0.4418 -0.7656 0.3123 -0.5411 0.3123 0.5411 0.4418 0.7656 4.5523 0c0.3429,-0.9294 0.5694,-1.9152 0.6617,-2.9397zm-0.9571 3.6633l-3.8393 0 1.6965 2.9396 0.2404 0c0.7746,-0.8716 1.4189,-1.8616 1.9024,-2.9396zm-2.5736 3.6343l-0.0886 -0.1534 -2.0089 -3.4809 -0.6798 0 -2.0087 3.4809 -0.1051 0.1823 -0.2072 0 -10.7595 0c2.0639,1.9512 4.849,3.1478 7.9136,3.1478 3.0797,0 5.8772,-1.2083 7.9442,-3.1767zm-16.5597 -0.6947l11.2543 0 1.6963 -2.9396 -1.7009 0 -0.2071 0 -0.1052 -0.1823 -2.0088 -3.481 -0.6797 0 -2.0089 3.481 -0.1052 0.1823 -0.2071 0 -7.8299 0c0.4834,1.0779 1.1277,2.068 1.9022,2.9396z"/>
  </g>
 </g>
</svg>
